<svg width="64" height="64" xmlns="http://www.w3.org/2000/svg">
  <!-- True pixelated 64x64 target -->
  <defs>
    <style>
      .pixel { shape-rendering: crispEdges; }
    </style>
  </defs>
  
  <!-- Background -->
  <rect x="0" y="0" width="64" height="64" fill="none"/>
  
  <!-- Outer ring pixels (radius ~30) -->
  <rect x="8" y="2" width="48" height="4" fill="#202020" class="pixel"/>
  <rect x="4" y="6" width="56" height="4" fill="#202020" class="pixel"/>
  <rect x="2" y="10" width="60" height="8" fill="#202020" class="pixel"/>
  <rect x="2" y="18" width="60" height="28" fill="#202020" class="pixel"/>
  <rect x="2" y="46" width="60" height="8" fill="#202020" class="pixel"/>
  <rect x="4" y="54" width="56" height="4" fill="#202020" class="pixel"/>
  <rect x="8" y="58" width="48" height="4" fill="#202020" class="pixel"/>
  
  <!-- Second ring pixels (radius ~24) -->
  <rect x="12" y="6" width="40" height="4" fill="#E8E8E8" class="pixel"/>
  <rect x="8" y="10" width="48" height="4" fill="#E8E8E8" class="pixel"/>
  <rect x="6" y="14" width="52" height="36" fill="#E8E8E8" class="pixel"/>
  <rect x="8" y="50" width="48" height="4" fill="#E8E8E8" class="pixel"/>
  <rect x="12" y="54" width="40" height="4" fill="#E8E8E8" class="pixel"/>
  
  <!-- Third ring pixels (radius ~18) -->
  <rect x="16" y="10" width="32" height="4" fill="#181818" class="pixel"/>
  <rect x="12" y="14" width="40" height="4" fill="#181818" class="pixel"/>
  <rect x="10" y="18" width="44" height="28" fill="#181818" class="pixel"/>
  <rect x="12" y="46" width="40" height="4" fill="#181818" class="pixel"/>
  <rect x="16" y="50" width="32" height="4" fill="#181818" class="pixel"/>
  
  <!-- Fourth ring pixels (radius ~14) -->
  <rect x="20" y="14" width="24" height="4" fill="#FFFFFF" class="pixel"/>
  <rect x="16" y="18" width="32" height="4" fill="#FFFFFF" class="pixel"/>
  <rect x="14" y="22" width="36" height="20" fill="#FFFFFF" class="pixel"/>
  <rect x="16" y="42" width="32" height="4" fill="#FFFFFF" class="pixel"/>
  <rect x="20" y="46" width="24" height="4" fill="#FFFFFF" class="pixel"/>
  
  <!-- Fifth ring pixels (radius ~10) -->
  <rect x="24" y="18" width="16" height="4" fill="#101010" class="pixel"/>
  <rect x="20" y="22" width="24" height="4" fill="#101010" class="pixel"/>
  <rect x="18" y="26" width="28" height="12" fill="#101010" class="pixel"/>
  <rect x="20" y="38" width="24" height="4" fill="#101010" class="pixel"/>
  <rect x="24" y="42" width="16" height="4" fill="#101010" class="pixel"/>
  
  <!-- Red center pixels (radius ~7) -->
  <rect x="28" y="22" width="8" height="4" fill="#CC0000" class="pixel"/>
  <rect x="24" y="26" width="16" height="4" fill="#CC0000" class="pixel"/>
  <rect x="22" y="30" width="20" height="4" fill="#CC0000" class="pixel"/>
  <rect x="24" y="34" width="16" height="4" fill="#CC0000" class="pixel"/>
  <rect x="28" y="38" width="8" height="4" fill="#CC0000" class="pixel"/>
  
  <!-- Inner red center pixels (radius ~4) -->
  <rect x="30" y="26" width="4" height="4" fill="#FF0000" class="pixel"/>
  <rect x="28" y="30" width="8" height="4" fill="#FF0000" class="pixel"/>
  <rect x="30" y="34" width="4" height="4" fill="#FF0000" class="pixel"/>
  
  <!-- Center bullseye pixel -->
  <rect x="30" y="30" width="4" height="4" fill="#880000" class="pixel"/>
</svg>